<svg width="70" height="70" viewBox="0 0 70 70" fill="none" xmlns="http://www.w3.org/2000/svg">
<g clip-path="url(#clip0_723_1056)">
<path d="M36.1101 68.7931C36.1101 69.4596 35.5698 70 34.9032 70C34.2366 70 33.6963 69.4596 33.6963 68.7931C33.6963 68.1267 34.2366 67.5862 34.9032 67.5862C35.5698 67.5862 36.1101 68.1267 36.1101 68.7931Z" fill="#0098D9"/>
<path fill-rule="evenodd" clip-rule="evenodd" d="M62.0665 13.5088H68.4095C69.0866 13.5088 69.6356 14.0586 69.6356 14.7375C69.6356 18.1232 66.8855 20.8778 63.5053 20.8778H61.5881C60.7749 22.7454 59.4563 24.5857 57.3104 25.6605C57.1399 25.7456 56.9524 25.7901 56.762 25.7901H47.5666V36.2287C47.5666 36.6392 47.3619 37.0226 47.0207 37.2504L43.8884 39.3418V47.5312C44.7402 47.7682 45.6304 47.895 46.5422 47.895H47.5666C48.2437 47.895 48.7927 48.4449 48.7927 49.1231V62.6319C48.7927 63.0577 48.5726 63.4532 48.2106 63.677C48.0138 63.7986 47.7904 63.86 47.5666 63.86C47.3787 63.86 47.1902 63.8167 47.0167 63.7295C46.8307 63.6358 45.6328 63.0289 43.8884 62.0461V68.7719C43.8884 69.4501 43.3395 70 42.6624 70H39.8196C39.1413 70 38.5915 69.4502 38.5915 68.7719V68.7719C38.5915 68.0937 39.1413 67.5439 39.8196 67.5439H41.4363V60.6194C37.1035 58.0168 31.2993 54.0818 27.9497 49.9677V67.5439H29.8539C30.5321 67.5439 31.0819 68.0937 31.0819 68.7719V68.7719C31.0819 69.4502 30.5321 70 29.8539 70H26.7237C26.0466 70 25.4976 69.4501 25.4976 68.7719V39.3415L22.3654 37.2498C22.0242 37.022 21.8195 36.6386 21.8195 36.2281V25.7895H12.6241C12.4337 25.7895 12.2461 25.745 12.0757 25.6599C9.92982 24.585 8.6112 22.7448 7.79802 20.8772H7.10683C3.7266 20.8772 0.976562 18.1226 0.976562 14.7368C0.976562 14.0586 1.52553 13.5088 2.20262 13.5088H7.30913C7.37963 13.5088 7.44737 13.5183 7.51449 13.5297C7.58162 13.5183 7.64967 13.5088 7.71986 13.5088H19.8308C22.8886 12.755 26.0276 12.3495 29.1758 12.2924V6.14035C29.1758 2.75456 31.9258 0 35.3061 0C38.6863 0 41.4363 2.75456 41.4363 6.14035V12.3326C44.172 12.4618 46.8944 12.8527 49.5553 13.5088H61.6662C61.7349 13.5088 61.8008 13.5183 61.8664 13.529C61.932 13.5183 61.9979 13.5088 62.0665 13.5088ZM38.9842 6.14035C38.9842 4.10882 37.3343 2.45614 35.3061 2.45614C33.2779 2.45614 31.6279 4.10882 31.6279 6.14035V12.2807H38.9842V6.14035ZM6.56645 15.9649H3.63894C4.1312 17.3563 5.43664 18.363 6.97993 18.4158C6.75097 17.4693 6.63051 16.6143 6.56645 15.9649ZM24.2716 24.5614V35.5707L25.4976 36.3896V20.2963C22.659 18.7517 20.8209 16.9913 19.8955 15.9649H9.03633C9.26591 17.9298 10.0754 21.7221 12.9287 23.3333H23.0455C23.7226 23.3333 24.2716 23.8832 24.2716 24.5614ZM46.3402 60.5928V50.3497C42.0855 50.2812 38.217 48.0581 35.9623 44.3729C35.4808 43.5858 34.9956 42.7276 34.5205 41.8219C31.5795 36.2167 30.1416 29.8304 30.3626 23.3545C30.3786 22.886 30.3896 22.5136 30.396 22.2932C29.5283 22.0442 28.712 21.7617 27.9497 21.4535V45.2464C28.9416 48.1916 32.6645 51.9016 38.7356 55.9911C41.7001 57.9881 44.5716 59.6275 46.3402 60.5928ZM36.6915 40.6792C37.1415 41.5373 37.5997 42.3485 38.053 43.0896C38.9202 44.5068 40.0855 45.6504 41.4363 46.469V42.9825C40.7592 42.9825 40.2103 42.4326 40.2103 41.7544V23.2569C39.4627 23.3075 38.736 23.3318 38.0313 23.3318C36.1474 23.3318 34.4184 23.1574 32.8325 22.8645C32.8273 23.0337 32.8209 23.2253 32.8138 23.4383C32.6069 29.4887 33.9479 35.4507 36.6915 40.6792ZM46.3406 23.3333H56.4573C59.3097 21.7224 60.1199 17.9307 60.3494 15.9649H49.4057C49.3055 15.9649 49.2058 15.9526 49.1084 15.9284C45.951 15.1378 42.7001 14.7368 39.4464 14.7368H29.9396C27.531 14.7368 25.124 14.9579 22.755 15.3926C28.6323 20.9512 36.9925 21.0089 40.2103 20.7925V18.4211C40.2103 17.7429 40.7592 17.193 41.4363 17.193C42.1134 17.193 42.6624 17.7429 42.6624 18.4211V37.2081L45.1145 35.5707V24.5614C45.1145 23.8832 45.6635 23.3333 46.3406 23.3333ZM62.4052 18.4211H63.5053C65.1038 18.4211 66.4674 17.3944 66.9735 15.9649H62.8199C62.7559 16.6155 62.6351 17.4724 62.4052 18.4211Z" fill="#0098D9"/>
</g>
<defs>
<clipPath id="clip0_723_1056">
<rect width="68.659" height="70" fill="white" transform="translate(0.976562)"/>
</clipPath>
</defs>
</svg>
