<svg width="69" height="70" viewBox="0 0 69 70" fill="none" xmlns="http://www.w3.org/2000/svg">
<g clip-path="url(#clip0_723_1209)">
<path d="M67.1413 49.7221L56.6523 39.0896" stroke="#8CC63F" stroke-width="2.9048" stroke-miterlimit="10" stroke-linecap="round" stroke-linejoin="round"/>
<path d="M34.7695 53.6743C35.1699 54.036 35.5581 54.4124 35.9334 54.8031L48.3059 67.8112" stroke="#8CC63F" stroke-width="2.9048" stroke-miterlimit="10" stroke-linecap="round" stroke-linejoin="round"/>
<path d="M14.4628 17.6887C12.8037 15.9709 10.0659 15.9231 8.34788 17.5821C6.62982 19.2411 6.58189 21.9785 8.24106 23.6965L15.4277 31.1376C17.0867 32.8554 19.8245 32.9032 21.5426 31.2442C23.2606 29.5852 23.3085 26.8478 21.6494 25.1298" stroke="#8CC63F" stroke-width="2.9048" stroke-miterlimit="10" stroke-linecap="round" stroke-linejoin="round"/>
<path d="M22.7289 13.7982L19.2284 10.1735C17.5693 8.45573 14.8316 8.40793 13.1135 10.067C11.3954 11.726 11.3475 14.4634 13.0067 16.1813L21.7309 25.2146C23.3899 26.9324 26.1277 26.9802 27.8457 25.3212C29.5638 23.6621 29.6117 20.9247 27.9526 19.2068L25.92 17.1021" stroke="#8CC63F" stroke-width="2.9048" stroke-miterlimit="10" stroke-linecap="round" stroke-linejoin="round"/>
<path d="M41.671 4.7725L36.7371 2.44483C35.7198 1.96488 34.5108 2.17244 33.7119 2.96426L27.3646 9.25422C26.6886 9.92417 26.6766 11.0131 27.3376 11.6978C29.4356 13.8709 32.9178 13.8686 35.0123 11.6921C38.0095 8.57753 41.671 4.7725 41.671 4.7725Z" stroke="#8CC63F" stroke-width="2.9048" stroke-miterlimit="10" stroke-linecap="round" stroke-linejoin="round"/>
<path d="M10.5161 26.0517C8.85652 24.3332 6.11782 24.2855 4.3991 25.945C2.6813 27.6038 2.63245 30.3405 4.29017 32.0593L9.28472 37.2309C10.9443 38.9494 13.683 38.9971 15.4017 37.3376C17.1204 35.6781 17.1682 32.9398 15.5087 31.2213" stroke="#8CC63F" stroke-width="2.9048" stroke-miterlimit="10" stroke-linecap="round" stroke-linejoin="round"/>
<path d="M12.8207 38.5986C12.3392 39.375 11.6024 40.3777 10.9429 41.0484L1.51758 49.7221" stroke="#8CC63F" stroke-width="2.9048" stroke-miterlimit="10" stroke-linecap="round" stroke-linejoin="round"/>
<path d="M51.8473 44.0233C51.9974 43.8778 52.1453 43.7298 52.2908 43.5792L64.3682 31.0739C66.0259 29.3551 65.9772 26.6183 64.2593 24.9595C62.5405 23.2999 59.802 23.3477 58.1421 25.0663C58.1425 25.0666 60.417 22.7109 60.417 22.7109C62.076 20.993 62.0284 18.2553 60.3103 16.5964C58.5921 14.9374 55.8545 14.9852 54.1953 16.7031L52.6019 18.3723M52.6019 18.3723C52.6015 18.3727 52.6023 18.3727 52.6019 18.3723ZM52.6019 18.3723L55.651 15.1958C57.31 13.4779 57.2624 10.7402 55.5443 9.08132C53.8261 7.42228 51.0885 7.47007 49.4293 9.188L46.7119 12.0028L46.7112 12.0022C46.7115 12.0025 46.712 12.0025 46.7124 12.0022L47.8916 10.7801C49.5507 9.06217 49.503 6.32452 47.7849 4.66562C46.0682 3.0079 43.2204 3.00777 41.6699 4.7723" stroke="#8CC63F" stroke-width="2.9048" stroke-miterlimit="10" stroke-linecap="round" stroke-linejoin="round"/>
<path d="M21.3262 67.8111L33.5706 54.803C36.3926 51.8653 39.9461 49.7321 43.8659 48.6223C45.3923 48.1902 46.8512 47.5691 48.2107 46.7783" stroke="#8CC63F" stroke-width="2.9048" stroke-miterlimit="10" stroke-linecap="round" stroke-linejoin="round"/>
</g>
<defs>
<clipPath id="clip0_723_1209">
<rect width="68.659" height="68.659" fill="white" transform="translate(0 0.67041)"/>
</clipPath>
</defs>
</svg>
